<svg xmlns="http://www.w3.org/2000/svg" xmlns:xlink="http://www.w3.org/1999/xlink" width="907" height="178" viewBox="0 0 907 178">
<g transform="matrix(2.96 0 0 2.87 453.75 89.25)">
<g>
		<g transform="matrix(17.9 0 0 17.9 -119.93 6.93)">
<path fill="#343135" transform=" translate(-2.67, -2.89)" d="M 3.726 1.855 C 3.44 2.127 3.042 2.237 2.661 2.292 c -0.34 0.05 -0.695 0.071 -0.999 0.203 C 1.344 2.634 1.144 2.864 1.16 3.22 c 0.01 0.214 0.125 0.423 0.287 0.584 C 1.492 3.84 1.538 3.874 1.586 3.905 C 1.583 3.899 1.58 3.892 1.575 3.886 C 1.382 3.621 1.232 2.862 2.242 2.697 C 2.445 2.664 2.648 2.63 2.85 2.584 c 0.178 -0.041 0.496 -0.141 0.531 -0.16 c 0.029 -0.017 -0.189 0.228 -0.857 0.42 C 1.463 3.149 1.789 4.03 2.113 4.131 C 2.237 4.161 2.367 4.176 2.5 4.176 c 0.926 0 1.677 -0.75 1.677 -1.676 c 0 -0.333 -0.097 -0.643 -0.264 -0.903 C 3.868 1.695 3.805 1.779 3.726 1.855 z" stroke-linecap="round" />
</g>
		<g transform="matrix(17.9 0 0 17.9 -127.21 -10.3)">
<path fill="#343135" transform=" translate(-2.26, -1.92)" d="M 0.824 2.5 c 0 0.184 0.03 0.359 0.084 0.525 c 0.02 -0.182 0.082 -0.354 0.198 -0.5 c 0.21 -0.267 0.536 -0.392 0.875 -0.459 C 2.319 2 2.679 1.992 3.026 1.908 c 0.192 -0.046 0.387 -0.121 0.542 -0.244 C 3.697 1.56 3.757 1.402 3.623 1.255 C 3.574 1.211 3.522 1.169 3.468 1.131 c 0.098 0.201 0.022 0.5 -0.773 0.578 C 2.491 1.73 2.288 1.749 2.087 1.777 C 2.028 1.785 1.955 1.796 1.88 1.809 c 0 0 0.066 -0.082 0.532 -0.188 c 0.958 -0.216 0.779 -0.633 0.495 -0.748 c -0.13 -0.032 -0.267 -0.05 -0.407 -0.05 C 1.574 0.824 0.824 1.574 0.824 2.5 z" stroke-linecap="round" />
</g>
		<g transform="matrix(3.04 0 0 3.04 38.91 0.19)">
<path fill="#343135" transform=" translate(-37.91, -14.73)" d="M 1.82 9.28 c 0 -3.22 2.42 -3.62 3.68 -3.62 c 1 0 1.98 0.22 2.72 0.7 l -1.06 2.18 c -0.58 -0.22 -0.8 -0.28 -1.28 -0.28 c -0.9 0 -0.88 0.82 -0.88 1.02 l 0 0.32 l 2.16 0 l 0 2.6 l -2.16 0 l 0 7.8 l -3.18 0 l 0 -7.8 l -1.42 0 l 0 -2.6 l 1.42 0 l 0 -0.32 z M 9.3 5.859999999999999 l 3.16 0 l 0 14.14 l -3.16 0 l 0 -14.14 z M 22.94 9.56 l 3.14 0 l -6.36 14.24 l -3.16 0 l 1.92 -4.16 l -4.5 -10.08 l 3.14 0 l 2.92 6.68 z M 39.18 9.56 l -4.66 10.44 l -2.78 0 l -4.66 -10.44 l 3.14 0 l 2.92 6.68 l 2.9 -6.68 l 3.14 0 z M 43.86 5.859999999999999 l 0 2.66 l -3.16 0 l 0 -2.66 l 3.16 0 z M 43.86 9.6 l 0 10.4 l -3.16 0 l 0 -10.4 l 3.16 0 z M 51.06 9.42 c 2.36 0 5.66 1.78 5 6.48 l -7.26 0 c 0.36 1.08 1.3 1.64 2.56 1.64 c 1.28 0 1.68 -0.28 2.4 -0.58 l 1.74 1.68 c -0.92 0.9 -2.16 1.56 -4.26 1.56 c -2.58 0 -5.66 -1.78 -5.66 -5.36 c 0 -3.64 3.12 -5.42 5.48 -5.42 z M 51.06 12.120000000000001 c -0.9 0 -1.82 0.52 -2.22 1.56 l 4.42 0 c -0.32 -1.04 -1.3 -1.56 -2.2 -1.56 z M 72.28 9.56 l 3.14 0 l -3.72 10.44 l -3.04 0 l -2.28 -6.5 l -2.28 6.5 l -3.04 0 l -3.72 -10.44 l 3.14 0 l 2.14 6.68 l 2.38 -6.68 l 2.76 0 l 2.38 6.68 z" stroke-linecap="round" />
</g>
</g>
</g>
</svg>